<svg width="45" height="45" viewBox="0 0 45 45" fill="none" xmlns="http://www.w3.org/2000/svg">
<g id="Group 427321542">
<rect id="Rectangle 12602" x="14.8828" y="18.5928" width="5.43168" height="27.8374" rx="2.71584" transform="rotate(-45 14.8828 18.5928)" fill="#9D9D9D"/>
<rect id="Rectangle 12603" x="6.72168" y="9.4707" width="4.07376" height="8.14752" rx="2.03688" transform="rotate(-45 6.72168 9.4707)" fill="#9D9D9D"/>
<rect id="Rectangle 12606" width="4.07376" height="8.14752" rx="2.03688" transform="matrix(0.707107 -0.707107 -0.707107 -0.707107 22.9131 25.6641)" fill="#9D9D9D"/>
<rect id="Rectangle 12604" x="3.95703" y="20.1494" width="4.07376" height="8.14752" rx="2.03688" transform="rotate(-90 3.95703 20.1494)" fill="#9D9D9D"/>
<rect id="Rectangle 12607" width="4.07376" height="8.14752" rx="2.03688" transform="matrix(1 0 0 -1 12.2363 28.4277)" fill="#9D9D9D"/>
<rect id="Rectangle 12605" width="4.07376" height="8.14752" rx="2.03688" transform="matrix(-1 0 0 1 20.1494 3.95703)" fill="#9D9D9D"/>
<rect id="Rectangle 12608" x="28.4277" y="12.2354" width="4.07376" height="8.14752" rx="2.03688" transform="rotate(90 28.4277 12.2354)" fill="#9D9D9D"/>
</g>
</svg>
