<svg width="163" height="88" viewBox="0 0 163 88" fill="none" xmlns="http://www.w3.org/2000/svg">
<path d="M153.215 31.1888L152.967 31.1717C152.916 31.1632 152.677 31.0693 152.677 31.0693L152.609 31.0095C152.327 30.8815 152.54 30.651 152.54 30.651L152.848 30.3523C152.941 30.2242 153.104 30.1474 153.104 30.1474C153.189 30.1047 153.257 30.0621 153.368 30.0109C153.522 29.9255 153.693 29.8572 153.88 29.7719C154.077 29.6865 153.94 29.7548 154.154 29.6524C154.188 29.6353 154.213 29.6267 154.239 29.6097C154.222 29.5841 154.213 29.5499 154.196 29.5158C153.812 28.7561 153.411 27.9111 152.984 27.1685C152.907 27.049 152.848 26.9209 152.762 26.7929L152.651 26.8612L151.849 27.3648L151.396 27.6892L151.268 27.7404H151.004C150.859 27.7489 150.679 27.6806 150.679 27.6806C150.517 27.6635 150.458 27.4416 150.458 27.4416L150.423 27.3392L150.458 27.2368L150.543 27.1087L150.697 26.8783L151.038 26.5539C151.388 26.3234 151.721 25.982 152.062 25.743C152.079 25.7259 152.096 25.7174 152.113 25.7003C151.507 24.6675 150.859 23.6603 149.997 22.858C149.937 22.9262 149.886 22.986 149.834 23.0543C149.502 23.5579 148.989 23.9676 148.657 24.4797L148.289 24.6931C148.085 24.7956 147.982 24.6931 147.982 24.6931C147.854 24.6761 147.777 24.5224 147.777 24.5224L147.718 24.42C147.598 24.3261 147.649 24.1298 147.649 24.1298L147.683 23.8908L147.854 23.5493C148.059 23.336 148.051 23.2591 148.213 23.0201L148.443 22.7299C148.614 22.508 148.802 22.2861 148.972 22.0641C148.332 21.7227 147.376 21.3301 146.847 21.2703C146.497 21.2362 146.087 21.2703 145.771 21.4752C145.652 21.7995 145.541 22.1495 145.464 22.4909C145.362 22.9433 145.311 23.1823 145.268 23.5237C145.268 23.5664 145.225 23.7542 145.174 23.8822C145.123 24.2322 145.089 24.5566 145.003 24.9236C144.952 25.1967 144.867 25.5126 144.815 25.7516C144.747 26.0162 144.705 26.2637 144.636 26.5198C144.483 27.1173 144.38 27.6977 144.32 28.3123C144.295 28.5683 144.278 28.9268 144.261 29.1658C144.235 29.4219 144.158 29.7377 144.158 30.045C144.192 30.5998 144.047 31.0778 144.081 31.6156C144.107 32.1106 144.227 32.7252 144.636 33.0752C144.833 33.2459 145.114 33.4166 145.336 33.5361C145.652 33.7068 146.07 33.758 146.42 33.8861C146.71 33.9885 147.06 34.0482 147.419 34.0397C147.863 34.0226 148.392 33.7495 148.819 33.63C149.911 33.3056 151.029 33.8007 152.045 33.9714C152.242 34.0056 152.446 34.0482 152.651 34.0994C152.967 33.9885 153.257 33.869 153.419 33.7153C153.829 33.3312 154.503 32.6142 154.58 32.1021C154.657 31.6156 154.64 31.0863 154.555 30.5827C154.23 30.7535 153.94 30.9242 153.582 31.1376C153.496 31.1888 153.24 31.2059 153.24 31.2059L153.215 31.1888Z" fill="#F3C300"/>
<path d="M162.177 20.0158C162.151 19.8622 162.143 19.6914 162.032 19.5634C161.946 19.4866 161.605 19.2732 161.519 19.2476C160.879 19.0513 160.47 19.461 160.47 19.461L160.239 19.6317C160.239 19.6317 160.179 19.6914 160.137 19.7085C160.051 19.7683 159.983 19.7939 159.898 19.8536C159.787 19.9219 159.684 20.0585 159.565 20.1438C159.275 20.3743 158.882 20.6474 158.609 20.912C158.216 21.2876 158.003 21.4925 157.585 21.7229C157.414 21.8168 157.286 21.9534 157.158 22.0644C157.03 22.1583 156.927 22.218 156.782 22.2948C156.364 22.5167 155.971 22.7387 155.579 23.0204C155.314 23.2252 154.845 23.5325 154.537 23.8227C154.392 23.9593 154.256 24.0958 154.119 24.1897C153.982 24.2836 153.82 24.4031 153.684 24.5056C153.53 24.6251 153.394 24.6848 153.257 24.8214C153.129 24.9323 152.967 25.0006 152.83 25.1201C152.617 25.325 152.361 25.4957 152.105 25.6664C152.088 25.6835 152.07 25.692 152.053 25.7091C151.712 25.9481 151.379 26.2895 151.029 26.52L150.688 26.8443L150.534 27.0748L150.449 27.2028L150.415 27.3053L150.449 27.4077C150.449 27.4077 150.508 27.6296 150.671 27.6467C150.671 27.6467 150.85 27.7235 150.995 27.715H151.26L151.388 27.6638L151.84 27.3394L152.642 26.8358L152.753 26.7675L153.803 26.1273C154.435 25.7688 154.827 25.3762 155.399 25.0689L155.51 24.9921C155.613 24.9494 155.826 24.8555 155.937 24.8043C156.526 24.5056 156.799 24.3519 157.286 24.002C157.704 23.7117 158.191 23.3789 158.643 23.0972C158.899 22.935 159.147 22.8411 159.36 22.6619C159.386 22.6277 159.428 22.5936 159.462 22.5765L161.05 21.612L161.801 20.9889C161.878 20.9376 161.955 20.8779 162.015 20.8352C162.262 20.6133 162.228 20.3487 162.185 20.0243L162.177 20.0158Z" fill="#6F7271"/>
<path d="M154.555 15.8842C154.469 15.7989 154.333 15.6708 154.213 15.6452C153.932 15.5684 153.701 15.7647 153.488 15.8928C153.308 15.9952 153.061 16.1147 152.941 16.2769C152.865 16.3878 152.813 16.5329 152.72 16.6524C152.643 16.7549 152.583 16.8573 152.498 16.9597C152.429 17.0707 152.361 17.1817 152.284 17.2926C152.19 17.4207 152.165 17.5231 152.054 17.6426C151.917 17.7877 151.772 17.9584 151.695 18.1462C151.627 18.2828 151.516 18.4108 151.405 18.5303C151.081 18.9144 150.893 19.307 150.569 19.7253C150.449 19.896 150.27 20.0838 150.193 20.263C150.142 20.374 150.022 20.5703 149.954 20.6642C149.86 20.8264 149.758 20.963 149.604 21.1166C149.467 21.2617 149.374 21.4239 149.271 21.5946C149.16 21.7739 149.092 21.8677 148.989 22.0043C148.989 22.0128 148.972 22.0299 148.964 22.0385C148.793 22.2518 148.605 22.4823 148.435 22.7042L148.204 22.9945C148.051 23.2335 148.051 23.3103 147.846 23.5237L147.675 23.8651L147.641 24.1041C147.641 24.1041 147.59 24.2919 147.709 24.3943L147.769 24.4967C147.769 24.4967 147.854 24.6504 147.974 24.6674C147.974 24.6674 148.076 24.7699 148.281 24.6674L148.648 24.4541C148.981 23.9419 149.493 23.5322 149.826 23.0286C149.877 22.9603 149.928 22.892 149.988 22.8323C150.261 22.4738 150.594 22.1323 150.816 21.7482C150.944 21.5349 151.098 21.3129 151.251 21.1251C151.593 20.6813 151.934 20.2545 152.31 19.8533C152.677 19.4521 153.018 19.051 153.291 18.6157C153.505 18.2913 153.872 18.0608 154.094 17.7535C154.247 17.5402 154.41 17.3353 154.469 17.1048C154.555 16.8146 154.683 16.5415 154.649 16.2171C154.649 16.1062 154.632 15.9696 154.538 15.8842H154.555Z" fill="#6F7271"/>
<path d="M162.228 26.0158C162.16 25.8366 161.998 25.7341 161.776 25.7427C161.588 25.7512 161.4 25.828 161.238 25.8707C161.076 25.9219 160.896 26.0073 160.726 26.0926C160.581 26.1524 160.461 26.2548 160.325 26.3231C160.009 26.4853 159.693 26.6304 159.42 26.8267C158.933 27.1852 158.396 27.3986 157.849 27.6717C157.388 27.9022 156.944 28.1839 156.509 28.4656C156.373 28.5509 156.219 28.6533 156.048 28.7302C155.22 29.0801 155.135 29.1911 154.683 29.3789C154.486 29.4642 154.375 29.5069 154.213 29.5837C154.187 29.6008 154.162 29.6179 154.128 29.6264C153.914 29.7288 154.051 29.6606 153.855 29.7459C153.667 29.8313 153.496 29.8996 153.342 29.9849C153.24 30.0361 153.163 30.0788 153.078 30.1215C153.078 30.1215 152.924 30.2068 152.822 30.3263L152.514 30.6251C152.514 30.6251 152.301 30.847 152.583 30.9836L152.651 31.0433C152.651 31.0433 152.899 31.1372 152.941 31.1458L153.189 31.1628C153.189 31.1628 153.445 31.1458 153.53 31.0946C153.889 30.8897 154.179 30.7104 154.503 30.5397C154.734 30.4202 154.981 30.3007 155.306 30.1812C155.741 30.0191 156.219 29.8654 156.646 29.6606C157.371 29.3106 158.105 28.8838 158.856 28.6277C159.283 28.4741 159.787 28.2863 160.214 28.0302C160.572 27.8169 161.007 27.6547 161.4 27.5096C161.613 27.4242 161.69 27.3901 161.852 27.2364C161.989 27.1084 162.117 26.9804 162.211 26.8182C162.322 26.6133 162.279 26.2036 162.194 25.9817L162.228 26.0158Z" fill="#6F7271"/>
<path d="M156.97 35.6443C156.347 35.3455 155.528 35.1407 154.904 34.8675C154.187 34.5688 153.402 34.27 152.617 34.0823C152.421 34.031 152.216 33.9884 152.011 33.9542C150.995 33.7835 149.877 33.297 148.784 33.6128C148.349 33.7323 147.828 34.0054 147.385 34.0225C147.018 34.031 146.676 33.9713 146.386 33.8689C146.036 33.7408 145.626 33.6896 145.302 33.5189C145.08 33.3994 144.798 33.2201 144.602 33.058C144.192 32.708 144.081 32.0934 144.047 31.5984C144.013 31.0606 144.158 30.5826 144.124 30.0278C144.124 29.7291 144.201 29.4132 144.226 29.1486C144.243 28.9096 144.26 28.5511 144.286 28.2951C144.346 27.6805 144.457 27.1001 144.602 26.5026C144.67 26.238 144.704 25.9904 144.781 25.7344C144.832 25.4954 144.918 25.1881 144.969 24.9064C145.054 24.5394 145.088 24.215 145.14 23.865C145.191 23.737 145.225 23.5492 145.234 23.5066C145.268 23.1651 145.327 22.9261 145.43 22.4737C145.515 22.1408 145.618 21.7909 145.737 21.458C145.797 21.3129 145.857 21.1678 145.925 21.0227C146.215 20.4337 146.403 19.7252 146.727 19.1192C146.727 19.1192 146.924 18.8034 146.958 18.701C147.009 18.6156 147.069 18.4876 147.069 18.4876C147.069 18.4876 147.188 18.3169 147.316 18.112C147.496 17.8133 147.47 17.9242 147.581 17.7279C147.632 17.6852 147.675 17.6255 147.7 17.5572C147.743 17.4804 147.794 17.4206 147.811 17.3182C147.845 17.1133 147.811 16.8743 147.709 16.7036C147.581 16.4988 147.385 16.2 147.077 16.1829C146.821 16.1744 146.514 16.3366 146.318 16.4732C146.198 16.5585 146.096 16.6524 146.027 16.7634C145.72 17.0792 145.481 17.5743 145.362 17.9328C145.208 18.462 144.995 18.9826 144.867 19.5289C144.739 20.0923 144.474 20.4252 144.32 20.9629C144.252 21.219 144.107 21.569 144.056 21.8336C144.022 22.0555 143.97 22.5164 143.97 22.7127C143.911 23.0542 143.765 23.8224 143.714 24.0784C143.612 24.7528 143.535 25.3844 143.339 26.0502C143.014 27.0915 142.622 28.2524 142.664 29.3876C142.707 30.4546 142.613 31.7008 142.937 32.6995C143.006 32.9214 143.1 33.1177 143.228 33.314C143.27 33.3994 143.322 33.4848 143.381 33.5616C143.492 33.7152 143.552 33.7835 143.68 33.9115C143.774 34.0054 143.859 34.0737 143.936 34.1676C144.09 34.3469 144.363 34.4749 144.568 34.6029C144.807 34.7566 144.918 34.8931 145.191 34.987C145.43 35.0809 145.635 35.1492 145.857 35.1834C146.104 35.226 146.429 35.2175 146.685 35.1834C147.026 35.1407 147.41 35.0468 147.769 35.0724C148.05 35.0809 148.298 35.098 148.588 35.0809C149.186 35.0297 149.766 34.7395 150.355 34.7993C151.029 34.859 151.584 35.1834 152.267 35.4224C152.736 35.5931 153.103 35.6784 153.402 35.8577C153.701 36.0369 153.974 36.2332 154.239 36.4125C154.742 36.7454 155.272 37.0783 155.878 37.3429C156.21 37.4965 156.432 37.6672 156.671 37.7867C157.073 37.9831 157.619 38.1196 158.071 38.2733C158.336 38.3586 158.66 38.5208 158.882 38.3586C159.061 38.2306 159.138 37.966 159.138 37.7867C159.369 36.5491 157.918 36.1223 156.953 35.6528L156.97 35.6443Z" fill="#6F7271"/>
<path d="M129.118 4.58288C129.707 4.46338 130.271 4.58288 130.885 4.73652L132.174 5.22305C132.72 5.37669 133.079 5.48766 133.471 5.82055L134.206 6.41805C134.692 6.80215 135.187 7.19479 135.631 7.67279C135.81 7.87765 135.93 8.11664 136.049 8.36418L136.228 8.72268C136.672 9.49089 136.775 10.7286 136.775 10.7371C136.869 11.3005 136.775 11.5395 136.613 12.026L136.391 12.6662C136.237 13.1356 136.092 13.5709 135.844 13.9977C135.503 14.5696 134.957 15.1159 134.581 15.4744C134.334 15.7049 134.001 15.867 133.668 16.0207L132.985 16.3792L132.72 16.567L132.165 16.9084C132.165 16.9084 132.114 16.9255 132.089 16.934L132.814 16.9767L133.19 17.0364C133.497 17.0962 133.813 17.1474 134.146 17.1047C134.479 17.062 134.786 16.934 135.068 16.823L135.861 16.567L136.834 16.3706C137.603 16.1402 138.098 15.8073 138.431 15.2781L138.653 14.9367C139.045 14.3477 139.412 13.7843 139.557 13.0844L139.839 11.7102L139.882 10.72V9.79817C139.882 9.32018 139.916 8.85925 139.788 8.36418L139.728 8.11664C139.566 7.39965 139.37 6.58876 138.96 6.00833C138.431 5.26573 137.859 4.61702 137.27 4.0622C136.732 3.81467 136.186 3.60981 135.648 3.44763C130.851 2.80746 127.983 3.98538 126.489 6.10223C127.24 5.31694 128.196 4.71945 129.118 4.55727V4.58288Z" fill="#F18A00"/>
<path d="M141.47 9.53369L141.538 9.9434L141.598 10.2763C141.598 10.2763 141.555 11.2067 141.546 11.2408C141.487 11.6505 141.273 12.0688 141.06 12.47L140.804 12.9992C140.642 13.3662 140.377 13.682 140.104 13.9893L139.669 14.4929L139.139 15.0136L138.866 15.2441L138.491 15.6196L137.961 16.1318L137.646 16.3195L137.099 16.6866C136.69 17.0536 136.348 17.1731 135.836 17.3524L135.699 17.4036C134.581 17.8048 133.548 18.0352 132.473 18.1206C131.124 18.2315 129.614 18.1206 127.736 17.7365C127.531 17.6938 127.343 17.634 127.155 17.5572C128.111 19.1278 129.52 20.3228 131.713 20.8093C138.166 21.1849 142.519 15.8928 142.682 10.8909C142.519 9.37151 141.956 8.09969 141.154 7.0498C141.307 7.44245 141.41 7.84362 141.435 8.22773L141.461 9.52515L141.47 9.53369Z" fill="#F18A00"/>
<path d="M132.26 15.3296C133.071 14.9882 133.907 14.6382 134.47 13.9041L134.863 13.4603C135.145 13.1786 135.418 12.8713 135.554 12.5384C135.648 12.2824 135.597 11.9153 135.554 11.6166L135.52 11.3691C135.452 10.4131 135.256 9.55095 134.957 8.80835C134.718 8.21085 134.419 7.84382 134.018 7.39143L133.31 6.58907C133.292 6.56347 133.19 6.47811 133.19 6.47811C132.686 6.05133 132.063 5.52212 131.389 5.55626L130.032 5.66722C129.417 5.76111 128.897 6.17936 128.384 6.58907L127.924 6.94757C127.454 7.28046 127.01 7.73286 126.771 8.10843L126.182 9.09856C125.73 9.75581 125.602 10.6008 125.525 11.352C125.457 12.1373 125.653 12.8884 126.08 13.4176L126.336 13.742C126.575 14.0578 126.848 14.4248 127.164 14.6297L127.924 14.937L128.88 15.4832C129.964 16.0637 130.979 15.8503 132.174 15.3381L132.268 15.2955L132.26 15.3296Z" fill="#F18A00"/>
<path d="M129.955 0.135743L128.367 0.622276L127.36 1.12588C126.831 1.38195 126.242 1.70631 125.789 2.23552L125.311 3.03787C125.311 3.03787 124.876 3.64391 124.833 3.69512L124.577 4.16458L124.244 4.50601C123.587 5.37665 123.263 6.32411 122.964 7.50203L122.742 8.57753L122.725 9.5762C122.64 10.3529 122.64 10.9334 122.725 11.4711L122.802 12.0259L122.964 12.9734L123.459 14.3562C123.63 14.7915 123.749 15.1073 124.091 15.4402L124.415 15.8499C124.569 16.0718 124.714 16.2852 124.961 16.3962L125.977 16.9596C126.353 17.1815 126.737 17.412 127.138 17.5741C127.326 17.6509 127.514 17.7192 127.719 17.7534C129.596 18.1289 131.099 18.2484 132.456 18.1375C133.531 18.0521 134.556 17.8217 135.682 17.4205L135.819 17.3693C136.331 17.1815 136.672 17.062 137.082 16.7035L137.628 16.3365L137.944 16.1487L138.473 15.6365L138.849 15.261L139.122 15.0305L139.651 14.5098L140.087 14.0062C140.351 13.6989 140.624 13.3831 140.787 13.0161L141.043 12.4869C141.248 12.0857 141.461 11.6674 141.529 11.2577C141.529 11.2236 141.58 10.3017 141.58 10.3017L141.512 9.96031L141.444 9.55059L141.418 8.25317C141.393 7.8776 141.282 7.47642 141.137 7.07525C140.966 6.62286 140.479 5.60711 140.479 5.60711C140.283 5.21447 140.001 4.84744 139.745 4.50601L139.122 3.68658C138.61 2.98666 138.064 2.25259 137.449 1.65509C137.168 1.38195 136.724 1.26245 136.331 1.15149L134.368 0.519848C133.565 0.246706 132.533 -0.0520424 131.594 0.00770737L129.938 0.152814L129.955 0.135743ZM128.871 15.5085L127.915 14.9622L127.155 14.6549C126.839 14.4415 126.566 14.083 126.327 13.7672L126.071 13.4429C125.644 12.9136 125.448 12.1625 125.516 11.3772C125.602 10.6261 125.73 9.78106 126.174 9.12381L126.763 8.13367C126.993 7.7581 127.437 7.30571 127.915 6.97282L128.376 6.61432C128.888 6.20461 129.417 5.77782 130.023 5.69247L131.38 5.5815C132.055 5.5559 132.678 6.08511 133.181 6.50336C133.181 6.50336 133.284 6.58871 133.301 6.61432C133.301 6.61432 134.001 7.40814 134.009 7.41667C134.402 7.8776 134.709 8.2361 134.948 8.8336C135.247 9.5762 135.443 10.4298 135.512 11.3943L135.546 11.6418C135.588 11.9406 135.64 12.3076 135.546 12.5637C135.409 12.8966 135.136 13.2039 134.854 13.4855L134.462 13.9294C133.907 14.6635 133.062 15.0134 132.251 15.3549L132.157 15.3975C130.971 15.9011 129.946 16.1231 128.862 15.5426L128.871 15.5085ZM139.882 9.82373V10.7456L139.839 11.7357L139.558 13.11C139.412 13.8099 139.045 14.3647 138.653 14.9622L138.431 15.3036C138.098 15.8329 137.603 16.1572 136.835 16.3962L135.862 16.5925L135.068 16.8486C134.786 16.9596 134.47 17.0876 134.146 17.1303C133.813 17.173 133.497 17.1132 133.19 17.062L132.814 17.0022L132.089 16.9596C132.089 16.9596 132.14 16.9425 132.166 16.934L132.72 16.5925L132.985 16.4047L133.668 16.0462C133.992 15.8926 134.334 15.7304 134.581 15.5C134.957 15.1415 135.512 14.5952 135.844 14.0233C136.092 13.5965 136.237 13.1526 136.391 12.6917L136.613 12.0515C136.775 11.565 136.869 11.326 136.775 10.7627C136.775 10.7541 136.672 9.51645 136.229 8.74824L136.049 8.38974C135.93 8.14221 135.81 7.90321 135.631 7.69835C135.187 7.22889 134.692 6.83625 134.206 6.44361L133.472 5.84611C133.087 5.51322 132.72 5.40225 132.174 5.24861L130.885 4.76208C130.271 4.60844 129.707 4.48894 129.118 4.60844C128.197 4.77915 127.241 5.36811 126.489 6.15339C126.08 6.58018 125.747 7.04964 125.508 7.56178C125.064 8.50924 124.594 9.62741 124.748 10.7883L124.774 11.1126C124.808 11.5565 124.842 11.9747 125.047 12.3759C125.183 12.6576 125.252 12.9905 125.311 13.2892C125.397 13.844 125.636 14.3562 125.909 14.8256L125.448 14.4159L124.688 13.6989C124.313 13.3063 124.159 12.9222 123.954 12.3674L123.519 11.6077L123.408 11.437C123.246 11.1894 123.254 10.8224 123.254 10.4895V9.44816C123.357 8.77385 123.638 8.15928 123.912 7.55325L124.151 7.02403C124.338 6.58871 124.56 6.2985 124.816 5.97414L125.636 4.99254L125.917 4.54869L126.267 4.01094C126.489 3.7634 126.814 3.52441 127.121 3.30248L127.488 3.03787L128.623 2.25259C129.34 1.85995 130.066 1.50145 130.954 1.45877H132.242C132.311 1.47584 133.83 1.79166 134.436 2.09895L135.025 2.45745L135.401 2.70498C136.066 3.10616 136.69 3.57562 137.287 4.13044C137.876 4.68526 138.448 5.33397 138.977 6.07657C139.387 6.657 139.583 7.46789 139.745 8.18489L139.805 8.43242C139.925 8.92749 139.899 9.38842 139.899 9.86641L139.882 9.82373Z" fill="#6F7271"/>
<path d="M112.824 40.9958C111.654 40.9958 110.895 41.9177 110.86 43.3261V54.0213C110.86 55.5918 110.562 56.5735 109.921 57.0002L109.162 57.538C108.522 57.9733 108.214 58.5452 108.214 59.2793C108.214 60.5084 109.162 61.379 110.51 61.379C112.26 61.379 114.044 59.7487 114.565 57.6916C114.753 56.9661 114.753 56.71 114.753 54.9517V43.3175C114.753 41.9348 113.993 40.9873 112.824 40.9873V40.9958Z" fill="#4D525A"/>
<path d="M120.369 40.9961C119.225 40.9961 118.466 41.9179 118.432 43.3263V54.1069C118.432 55.4982 119.225 56.4371 120.395 56.4371C121.564 56.4371 122.298 55.5238 122.332 54.1069V43.3263C122.332 41.9436 121.539 40.9961 120.369 40.9961Z" fill="#4D525A"/>
<path d="M83.0602 40.9961C78.9631 40.9961 75.7451 44.4616 75.7451 48.9087V54.0471C75.7451 55.4726 76.556 56.4457 77.7595 56.4457C78.9631 56.4457 79.7057 55.5067 79.7313 54.0471V48.7892C79.7654 46.7406 81.1738 45.1871 83.0602 45.1871C84.8527 45.1871 86.2867 46.7321 86.3208 48.6953V54.0471C86.3208 55.4726 87.1146 56.4457 88.3182 56.4457C89.5217 56.4457 90.2643 55.5067 90.2984 54.0471V48.8148C90.2984 44.4616 87.0634 41.0046 83.0602 41.0046V40.9961Z" fill="#4D525A"/>
<path d="M132.883 40.9961C128.777 40.9961 125.559 44.4616 125.559 48.9087V54.0471C125.559 55.4726 126.379 56.4457 127.582 56.4457C128.786 56.4457 129.528 55.5067 129.562 54.0471V48.7892C129.579 46.7406 130.996 45.1871 132.891 45.1871C134.675 45.1871 136.118 46.7321 136.16 48.6953V54.0471C136.16 55.4726 136.946 56.4457 138.141 56.4457C139.336 56.4457 140.087 55.5067 140.121 54.0471V48.8148C140.121 44.4616 136.894 41.0046 132.891 41.0046L132.883 40.9961Z" fill="#4D525A"/>
<path d="M39.306 40.9958C38.1366 40.9958 37.3684 41.9177 37.3428 43.3261V49.5315C37.3428 51.0509 36.3271 52.2544 34.9784 52.2544C34.0651 52.2544 33.1859 51.6569 32.836 50.8033C32.6311 50.257 32.5714 49.89 32.5714 48.6353V43.3261C32.5714 41.9433 31.7861 40.9958 30.6423 40.9958H30.6167C29.4729 40.9958 28.7132 41.9177 28.6876 43.3261V49.5315C28.6876 51.0509 27.6634 52.2544 26.3147 52.2544C25.4014 52.2544 24.5308 51.6569 24.1723 50.8033C23.9674 50.257 23.9162 49.89 23.9162 48.6353V43.3261C23.9162 41.9433 23.1309 40.9958 21.953 40.9958C20.7751 40.9958 20.0581 41.9177 20.0239 43.3261V49.0023C20.0239 50.6753 20.3227 52.1178 20.869 53.0994C22.0469 55.148 24.1723 56.4369 26.3489 56.4369C27.9536 56.4369 29.5071 55.737 30.6508 54.5505C31.8458 55.7455 33.4249 56.4369 35.0126 56.4369C36.8819 56.4369 38.7 55.498 39.8694 53.9103C40.8424 52.5873 41.2522 51.1704 41.2522 49.1218V43.3175C41.2522 41.9348 40.4583 40.9873 39.3231 40.9873L39.306 40.9958Z" fill="#4D525A"/>
<path d="M59.6808 50.9145C60.5429 54.1837 63.3085 56.531 66.6203 56.531C70.7175 56.531 73.944 53.0741 73.944 48.6355C73.944 44.4701 70.6321 40.9961 66.6545 40.9961C63.3256 40.9961 60.5003 43.4458 59.6552 46.715H57.2311C56.3946 43.4714 53.5352 41.0388 50.1977 41.0388C46.2201 41.0388 42.9424 44.5384 42.9424 48.7636C42.9424 52.9887 46.1518 56.5822 50.1636 56.5822C53.5437 56.5822 56.3178 54.2264 57.1884 50.9145H59.6808ZM66.6545 45.2554C68.4641 45.2554 69.9663 46.8345 69.9663 48.6953C69.9663 50.7694 68.5323 52.3485 66.6203 52.3485C64.7084 52.3485 63.3512 50.7694 63.3512 48.7806C63.3512 46.7918 64.8364 45.2469 66.6545 45.2469V45.2554ZM50.1721 52.3998C48.3625 52.3998 46.8944 50.8207 46.8944 48.8404C46.8944 46.8601 48.3881 45.2981 50.1977 45.2981C52.0073 45.2981 53.5095 46.8772 53.5095 48.7465C53.5095 50.8207 52.0756 52.3998 50.1721 52.3998Z" fill="#4D525A"/>
<path d="M101.804 57.4104V55.2595C104.843 54.3888 107.037 51.6318 107.037 48.32C107.037 44.2314 103.819 41.0049 99.6959 41.0049C95.8293 41.0049 92.6113 44.3167 92.6113 48.3029C92.6113 51.6233 94.8818 54.4486 97.9205 55.2851V57.3848C94.9074 58.2299 92.654 61.0808 92.654 64.4268C92.654 68.4044 95.889 71.6821 99.8154 71.6821C103.742 71.6821 107.071 68.4641 107.071 64.4524C107.071 61.0637 104.886 58.2982 101.796 57.419L101.804 57.4104ZM96.5633 48.2943C96.5633 46.4762 98.0315 44.9825 99.7557 44.9825C101.685 44.9825 103.153 46.4165 103.153 48.3114C103.153 50.2063 101.685 51.5977 99.841 51.5977C97.9973 51.5977 96.5633 50.1039 96.5633 48.2943ZM99.8923 67.7215C98.0571 67.7215 96.589 66.2363 96.589 64.4182C96.589 62.6001 98.0571 61.1064 99.7898 61.1064C101.719 61.1064 103.187 62.5319 103.187 64.4438C103.187 66.3558 101.719 67.7215 99.8837 67.7215H99.8923Z" fill="#4D525A"/>
<path d="M17.6165 35.5588C17.2068 35.2344 16.9337 35.004 16.9337 35.004C16.2252 34.4406 15.6107 34.0224 14.9022 33.4676C14.7827 33.3651 14.5522 33.1176 14.4413 33.0237C14.2279 32.853 14.0145 32.6823 13.8096 32.5201C13.6048 32.3494 13.3828 32.2214 13.178 32.0592C13.0243 31.9311 12.8792 31.769 12.7427 31.6409C12.4183 31.3763 12.094 31.1202 11.7867 30.8642C11.4367 30.574 11.1038 30.352 10.7795 30.0874C10.4466 29.7972 10.1222 29.4643 9.82347 29.1997L9.57593 28.9863L9.4735 29.268C9.3284 29.6863 9.3284 30.1557 9.3284 30.6081L9.25158 31.6751C8.84186 34.2614 7.96269 37.4366 7.10059 40.5095C9.03818 40.04 10.0539 39.5279 12.1366 38.9219C13.3402 38.5634 14.262 38.0171 15.4058 37.5476C16.6349 37.044 17.4629 36.9501 18.6323 36.3612C18.4445 36.2075 18.2738 36.0965 18.0945 35.9514C17.9409 35.8234 17.7616 35.6612 17.6251 35.5503L17.6165 35.5588Z" fill="#00A0DF"/>
<path d="M8.11654 20.1863C8.92743 19.401 8.44943 18.3597 8.20189 17.6C6.68254 15.7307 5.39366 16.1916 4.21573 17.0793C3.74627 17.7963 3.02927 18.7779 3.68652 19.7595C5.07784 20.9033 6.53744 20.8606 8.108 20.1863H8.11654Z" fill="#CF3339"/>
<path d="M8.03106 27.4329C8.21031 28.0389 8.31274 28.6535 8.33834 28.7047C8.33834 29.123 8.35541 29.5498 8.32981 29.9595C8.32127 30.1387 8.32981 30.2582 8.31274 30.446C8.29566 30.5911 8.25299 30.7874 8.23591 30.9325C8.14202 31.5983 8.00545 32.2556 7.83474 32.9128C7.73231 33.314 7.62135 33.7237 7.51038 34.1249C7.36528 34.637 7.27992 34.9955 7.17749 35.3455C7.0836 35.6442 6.92996 35.9942 6.82753 36.3015C6.64828 36.8904 6.46049 37.4965 6.27271 38.111C6.05078 38.8622 5.94835 39.6731 5.77764 40.4669C5.63253 41.09 5.32525 41.7814 5.20575 42.3533C5.12893 42.763 5.00089 43.13 4.95821 43.4629C4.93261 43.6592 4.98382 43.8214 4.95821 44.0007C4.99236 44.0177 5.18868 44.564 5.32525 44.6067C5.55571 44.692 6.04225 44.2653 6.07639 44.2738C6.09346 44.197 6.18735 44.086 6.25564 43.847C6.30685 43.6678 6.31539 43.369 6.38367 43.1386C6.50317 42.6776 6.7251 42.3362 6.8446 41.8838L7.0836 40.5181C7.9457 37.4538 8.82488 34.27 9.23459 31.6837L9.31141 30.6167C9.31141 30.1643 9.31141 29.6949 9.45652 29.2766L9.55894 28.9949L9.80648 29.2083C10.1138 29.4729 10.4296 29.8058 10.7625 30.096C11.0868 30.3606 11.4197 30.5826 11.7697 30.8728C12.077 31.1203 12.4013 31.3849 12.7257 31.6495C12.8708 31.7776 13.0074 31.9397 13.161 32.0678C13.3659 32.23 13.5878 32.358 13.7926 32.5287C13.9975 32.6909 14.2109 32.8616 14.4243 33.0323C14.5352 33.1262 14.7657 33.3737 14.8852 33.4762C15.5937 34.0395 16.2082 34.4492 16.9167 35.0126C16.9167 35.0126 17.1898 35.2431 17.5996 35.5674C17.7361 35.6784 17.9068 35.8405 18.069 35.9686C18.2483 36.1137 18.419 36.2247 18.6068 36.3783C18.6494 36.4124 18.7007 36.4466 18.7519 36.4893C18.8543 36.5661 18.9397 36.6856 19.0335 36.7624C19.153 36.8478 19.2725 36.899 19.3835 36.9929C19.6993 37.2404 20.0066 37.5733 20.2712 37.7781C20.4419 37.9233 20.5956 37.9574 20.7236 38.0598C20.9797 38.2647 21.1504 38.3927 21.1675 38.4098C21.2187 38.4183 21.4406 38.4269 21.5857 38.4098C21.782 38.3756 21.9015 38.2818 21.9015 38.2818C22.0381 38.2049 22.1917 37.855 22.243 37.6245C22.2686 37.505 22.0808 37.3172 22.1064 37.2916C21.9527 37.1465 21.8332 36.9843 21.654 36.8222C21.4577 36.6429 21.1504 36.4466 20.937 36.2588C20.4505 35.8491 19.9469 35.4052 19.392 34.9614C19.1872 34.7992 18.8799 34.637 18.6665 34.4663C18.1544 34.0737 17.6934 33.6725 17.1642 33.2798C16.6265 32.8787 16.0887 32.4519 15.5851 32.0763C14.8255 31.53 14.117 31.0691 13.511 30.6423C13.3061 30.4972 13.1439 30.3606 12.9561 30.2326C12.6403 30.0192 12.2818 29.8314 11.9745 29.6266C11.8806 29.5754 11.8465 29.5156 11.7697 29.4559C11.7014 29.4132 11.6075 29.3705 11.5478 29.3193C11.2661 29.123 10.9929 28.901 10.7027 28.645C10.5918 28.5425 10.4723 28.4657 10.3528 28.3377C10.1991 28.1755 10.0284 27.9707 9.86623 27.7829L9.50773 27.0915L9.15777 26.4257C9.34555 26.3574 9.53334 26.2721 9.72966 26.2038C10.0455 26.0843 10.3015 25.9733 10.7027 25.777C11.0868 25.5892 11.5478 25.4526 11.9319 25.2563C12.3074 25.0515 12.6062 24.7868 12.9818 24.5479C13.4597 24.2406 13.9548 23.9162 14.4414 23.5492C14.7828 23.2931 15.1669 23.0797 15.6363 22.67C16.0119 22.3371 16.4387 21.842 16.8143 21.4579C17.2325 21.0482 17.5142 20.6727 17.8983 20.2117C18.0093 20.0752 18.2227 19.9215 18.3422 19.7849C19.1104 18.8716 19.8274 17.9071 20.3907 16.9426C20.7663 16.3024 21.0736 15.6622 21.2784 15.0476C21.5089 14.3563 21.5516 13.7331 21.4918 13.11C21.4662 12.8796 21.3126 12.5808 21.2443 12.376C20.7407 12.376 20.4078 12.4016 20.0664 12.5467C19.1274 12.9564 18.6665 14.0063 18.3336 15.005C18.2312 15.3208 18.0434 15.6622 17.9239 15.9951C17.7532 16.4902 17.6166 16.9426 17.3264 17.3864C17.1472 17.6425 16.8057 17.9156 16.5838 18.1717C16.0717 18.7692 15.5937 19.3411 14.9193 19.9044C14.6547 20.1264 14.4499 20.408 14.1682 20.63C13.8353 20.9031 13.4256 21.0994 13.0927 21.364C12.5635 21.7652 12.0599 22.1579 11.5904 22.5249C10.8905 23.0797 10.165 23.4638 9.59309 23.8052C9.20045 24.0442 8.83341 24.2491 8.44931 24.454C8.4237 24.3259 8.38956 24.1467 8.39809 24.1637C8.36395 23.976 8.17617 23.4467 7.97984 22.9858C7.89449 22.798 7.83474 22.5932 7.75792 22.431C7.64695 22.2005 7.52745 22.0128 7.48478 21.8847C7.3482 21.5518 7.0836 21.5433 7.0836 21.5433C7.0836 21.5433 6.91288 21.5689 6.76778 21.6543C6.71656 21.6969 6.68242 21.7567 6.63974 21.7994C6.63974 21.8676 6.67389 22.0554 6.71656 22.2261C6.75071 22.3969 6.76778 22.5505 6.80192 22.6871C6.85313 22.8919 6.85314 23.1907 6.94703 23.4553L7.0836 24.232C7.0836 24.232 7.30553 24.932 7.33113 25.0002C7.07506 25.1197 6.80192 25.2307 6.50317 25.3587C6.27271 25.4612 5.82885 25.5892 5.57278 25.7002C5.17161 25.8709 4.59972 26.1526 3.87418 26.4257C3.52422 26.5537 3.07183 26.6562 2.71333 26.8013C2.26094 26.9891 1.81709 27.1086 1.42445 27.3049C1.20252 27.4073 0.997661 27.5695 0.818412 27.6719C0.54527 27.8341 0.255057 27.9792 0.118487 28.1243C-0.103441 28.3718 -0.00954854 28.6194 0.366021 28.8072C0.613556 28.9267 1.25373 28.7303 1.25373 28.7303C1.72319 28.6023 2.19266 28.4828 2.65358 28.3548C3.13158 28.2267 3.61811 28.1499 4.07904 28.0304C4.48022 27.928 4.86432 27.7829 5.25696 27.6719C6.16175 27.4244 7.02385 27.1768 7.88595 26.8866L8.03106 27.4329Z" fill="#6F7271"/>
<path d="M132.977 74.8056H132.61C132.029 74.8226 131.492 74.9421 131.099 75.0446C130.792 75.1299 130.467 75.147 130.152 75.1726C129.93 75.1897 129.691 75.1982 129.469 75.2409L128.991 75.3348C128.735 75.3945 128.479 75.4543 128.188 75.4799L127.352 75.5311C126.404 75.5823 125.431 75.642 124.492 75.9067C123.929 76.0688 123.374 76.2993 122.845 76.5212C122.845 76.5212 122.743 76.5639 122.657 76.598V76.6663C122.726 76.709 122.802 76.7346 122.862 76.7517C123.366 76.9224 123.929 77.1614 124.458 77.2468C125.517 77.4175 126.404 77.8186 127.395 78.1174C127.992 78.3052 127.881 78.3649 128.479 78.51C129.178 78.6722 129.025 78.6893 129.716 78.8515C130.152 78.9454 130.109 79.1075 130.553 79.1758C130.809 79.2185 131.039 79.2612 131.304 79.3295C131.432 79.3465 131.577 79.4319 131.671 79.449C132.046 79.5429 132.14 79.2014 132.14 79.2014C132.123 79.1331 132.226 79.0478 132.26 78.988C132.337 78.8515 132.439 78.5698 132.473 78.3564C132.533 78.1686 132.704 77.904 132.746 77.6991C132.985 76.5127 133.532 75.864 133.762 75.1726C133.779 75.1384 133.839 74.7799 133.882 74.7031C133.848 74.7031 133.617 74.7714 133.617 74.7714C133.404 74.8141 133.182 74.8056 132.968 74.7885L132.977 74.8056Z" fill="#CF3339"/>
<path d="M121.104 78.0915C121.027 77.8696 120.916 77.5709 120.848 77.3916C120.37 77.5538 119.909 77.716 119.439 78.0403L119.252 78.1683C118.782 78.5012 118.338 78.8256 117.835 79.1243L117.433 79.3377L117.024 79.7645L116.358 80.5071C116.17 80.7461 116.204 80.5839 116.008 80.8229L115.001 81.6594L114.122 82.2911C114.122 82.2911 113.866 82.5728 113.584 82.8374C113.37 83.0337 113.097 83.23 113.097 83.23C113.02 83.3068 113.003 83.358 113.003 83.4092C113.003 83.469 113.038 83.5202 113.055 83.5373L113.533 83.8616C113.772 83.9897 114.147 84.1177 114.335 84.3652L115.888 85.0054L116.879 85.5944C116.879 85.5944 117.451 85.97 117.416 85.9529L118.227 86.337L118.432 86.4736C118.432 86.4736 118.893 86.6955 118.953 86.7296C119.013 86.7723 119.064 86.7979 119.106 86.7808C119.252 86.7126 119.371 86.2772 119.397 86.0041C119.397 85.5602 119.533 85.2017 119.67 84.8432C119.798 84.5274 119.934 84.1945 119.951 83.7934L120.19 83.0166C120.404 82.4276 120.686 81.6338 120.686 81.1046L120.805 80.3364C120.805 80.3364 121.061 78.9707 121.146 78.5439C121.146 78.4842 121.129 78.4329 121.112 78.3732C121.112 78.2793 121.087 78.2025 121.07 78.1171L121.104 78.0915Z" fill="#A8AD00"/>
<path d="M125.61 65.254C125.551 66.3124 125.115 67.1404 124.688 67.9513C124.407 68.4719 124.125 69.0182 123.954 69.6242L123.698 70.4266L123.408 71.4167L123.314 71.8265L123.212 72.2959L123.058 72.8934L122.964 73.2861L122.853 73.7384L122.674 74.3786C122.657 74.4725 122.623 74.5579 122.597 74.6432C122.631 74.6518 122.759 74.6774 122.904 74.7457L122.99 74.7286C123.212 74.6944 123.425 74.6944 123.63 74.6859C123.784 74.6176 123.929 74.5664 124.117 74.5067C124.816 74.3018 124.757 74.0884 125.354 73.6446C125.679 73.4056 126.387 73.1068 126.703 72.8849C127.113 72.5861 127.804 72.1849 128.222 71.946L129.392 71.1777C129.477 71.1436 129.656 71.0668 129.835 70.9814C129.835 70.9814 130.211 70.8192 129.887 70.29C129.545 69.8462 129.076 69.2743 128.896 69.0353C128.401 68.3695 128.598 68.5146 128.231 68.1134C128.009 67.8659 127.83 67.3367 127.573 67.1062C127.352 66.9014 126.686 65.5271 126.455 65.3308C126.011 64.9638 125.807 64.2724 125.354 63.9736C125.559 64.2553 125.627 64.6223 125.627 64.9808C125.627 65.0747 125.627 65.1686 125.627 65.254H125.61Z" fill="#F3C300"/>
<path d="M136.527 73.8753C136.314 72.9449 134.334 73.1839 134.103 73.2096C133.907 73.2352 133.728 73.2693 133.549 73.3291C133.071 73.4742 132.772 73.4571 132.772 73.4571C132.422 73.4912 132.055 73.5254 131.705 73.5766L130.92 73.679C130.459 73.7388 130.023 73.7729 129.571 73.9095C129.076 74.0546 128.547 74.1997 128 74.2509C127.685 74.2765 127.411 74.268 127.138 74.2509C126.669 74.2424 126.233 74.2253 125.721 74.3875C125.44 74.4728 125.149 74.5155 124.851 74.5667L124.458 74.6265C124.202 74.6777 123.656 74.6862 123.639 74.6862C123.434 74.6862 123.22 74.6948 122.998 74.7289L122.913 74.746C122.768 74.6862 122.648 74.6606 122.606 74.6435C122.631 74.5582 122.666 74.4643 122.683 74.3789L122.862 73.7388L122.973 73.2864L123.067 72.8937L123.22 72.2962L123.323 71.8268L123.417 71.4171L123.707 70.4269L123.963 69.6246C124.134 69.0185 124.415 68.4637 124.697 67.9516C125.115 67.1407 125.551 66.3127 125.619 65.2543C125.619 65.1689 125.619 65.0751 125.619 64.9812C125.619 64.6227 125.559 64.2471 125.346 63.991C125.243 63.8459 125.098 63.735 124.885 63.6837L124.671 63.5898L124.475 63.6069C124.219 63.6411 123.895 63.6667 123.715 63.9313C123.604 64.102 123.553 64.2983 123.519 64.4861L123.365 65.0153L123.237 65.4165L123.135 65.8518C123.033 66.4152 122.785 66.9188 122.785 66.9188C122.717 67.0809 122.631 67.2431 122.555 67.4394C122.503 67.6016 122.469 67.7638 122.444 67.9174C122.401 68.1138 122.358 68.3015 122.273 68.4979C122.102 68.8564 122.068 69.1978 122.017 69.5136C121.983 69.7611 121.957 70.0087 121.872 70.2647L121.607 71.1695L121.445 71.7756C121.257 72.3987 121.027 73.2096 120.933 73.918C120.617 73.7217 120.378 73.5339 120.207 73.3461C120.207 73.3461 118.953 72.0828 118.662 71.6987C118.381 71.3317 118.039 71.033 117.706 70.7513C117.51 70.572 117.314 70.4099 117.134 70.2135C116.819 69.8977 116.417 69.5051 115.982 68.9503C115.982 68.9503 115.368 68.165 115.171 67.8662C115 67.6272 114.83 67.3882 114.608 67.1236C114.446 66.9188 114.352 66.8675 114.224 66.7993L114.019 66.6627L113.771 66.6115C113.771 66.6115 113.507 66.7224 113.43 66.8334C113.353 66.9529 113.336 67.0809 113.336 67.1919C113.336 67.2858 113.336 67.3626 113.362 67.4138C113.421 67.6955 113.575 67.8406 113.712 67.9686L113.865 68.1223C114.079 68.3698 114.215 68.6942 114.369 69.0356C114.497 69.3344 114.633 69.6416 114.83 69.9062C114.83 69.9062 115.641 71.1439 115.888 71.3402L116.23 71.7073C116.358 71.8695 116.46 72.0743 116.588 72.2792C116.759 72.595 116.938 72.9023 117.186 73.1327C117.314 73.2608 117.501 73.4998 117.655 73.6961C117.655 73.6961 118.56 74.8399 118.799 75.241C118.918 75.4459 119.029 75.5995 119.132 75.7361C118.748 75.8641 118.338 76.0178 117.928 76.2056C117.928 76.2056 116.375 77.0335 115.965 77.2043C115.675 77.3323 115.368 77.4262 115.069 77.5201C114.727 77.631 114.386 77.7335 114.07 77.8871C113.72 78.0407 113.43 78.2456 113.148 78.4334L112.636 78.7748C112.337 78.9455 111.202 79.4833 110.955 79.6113L109.828 80.2771C108.991 80.738 108.385 81.0709 108.266 81.9415C108.249 82.0525 108.24 82.1549 108.24 82.2574C108.24 82.8122 108.496 83.1536 109.077 83.4353C109.896 83.8279 110.229 83.6914 111.083 83.3243L111.424 83.1195C111.68 82.8975 111.936 82.7268 112.209 82.5561L112.534 82.3598C112.534 82.3598 113.498 81.6855 113.737 81.5489L114.454 81.1904C114.744 81.0538 115.035 80.9087 115.316 80.7551C115.649 80.5588 115.828 80.4137 116.042 80.2259L116.247 80.0637C116.554 79.8162 116.887 79.6455 117.245 79.4662L117.459 79.3552L117.86 79.1418C118.364 78.8431 118.807 78.5187 119.277 78.1859L119.465 78.0578C119.926 77.742 120.395 77.5713 120.873 77.4091C120.941 77.5798 121.052 77.8871 121.129 78.109C121.146 78.1944 121.163 78.2712 121.172 78.3651C121.18 78.4249 121.197 78.4761 121.206 78.5358C121.24 78.698 121.283 78.8516 121.325 79.0053L121.419 79.3638C121.505 79.6967 121.641 79.9783 121.769 80.2515C121.914 80.5673 122.068 80.8575 122.119 81.2331C122.273 82.2062 122.776 83.1878 123.237 84.1438C123.664 85.0229 123.878 85.5351 123.878 85.5351C124.125 86.107 124.552 87.1825 125.047 87.3873C125.295 87.4812 125.423 87.4215 125.491 87.3617C125.559 87.2849 125.602 87.191 125.602 87.0715C125.602 86.952 125.568 86.8154 125.516 86.7045L125.354 86.3033C125.26 86.0984 125.166 85.9106 125.107 85.6972L124.834 84.8437C124.637 84.2462 124.441 83.6743 124.321 83.0683C124.279 82.8975 124.219 82.7183 124.159 82.539C124.082 82.3257 124.006 82.1037 123.989 81.8903C123.929 81.5233 123.826 81.1904 123.732 80.8661L123.374 79.5345C123.289 79.1504 123.195 78.7663 123.075 78.3651L123.015 78.1944C122.862 77.6993 122.7 77.1957 122.691 76.7092V76.6153C122.768 76.5811 122.879 76.5385 122.879 76.5385C123.408 76.3165 123.963 76.0861 124.526 75.9239C125.457 75.6593 126.438 75.5995 127.386 75.5483L128.222 75.4971C128.521 75.4715 128.777 75.4203 129.025 75.352L129.503 75.2581C129.733 75.2154 129.964 75.2069 130.185 75.1898C130.501 75.1642 130.817 75.1472 131.133 75.0618C131.526 74.9594 132.063 74.8313 132.644 74.8143H133.011C133.224 74.8399 133.446 74.8484 133.659 74.8057C133.659 74.8057 134.155 74.6521 134.359 74.6521C134.615 74.6521 134.829 74.6521 135.076 74.6179H135.29C135.674 74.5923 136.28 74.5582 136.493 74.268C136.57 74.1655 136.596 74.029 136.562 73.8924L136.527 73.8753Z" fill="#6F7271"/>
<path d="M146.36 71.0589C146.89 71.1186 147.231 71.2808 147.777 71.3662C148.05 71.4089 148.315 71.5369 148.597 71.5369C148.81 71.5369 149.16 71.5796 149.339 71.6735H149.356C149.356 71.6735 149.391 71.6991 149.399 71.7076C149.578 71.7417 149.749 71.7588 149.937 71.793C150.406 71.8954 150.91 72.1002 151.379 72.2368C151.721 72.3307 151.968 72.3905 152.293 72.5014C152.89 72.6892 153.257 72.6636 153.829 72.7404C154.008 72.766 154.222 72.8429 154.384 72.8514C154.384 72.8514 154.759 72.9197 154.546 72.6039C154.179 72.1941 153.923 72.0576 153.59 71.6222C153.394 71.3576 153.112 71.0674 152.933 70.7857C152.557 70.2224 152.352 69.9236 152.02 69.3347C151.815 68.9762 151.968 68.8994 151.772 68.5323C151.542 68.0543 151.174 67.2349 150.995 66.7313C150.85 66.2618 150.731 65.69 150.611 65.34C150.432 64.7852 150.406 63.9487 150.295 63.3939C150.21 62.9927 150.082 61.4904 149.988 60.6539C149.937 60.2357 149.971 59.843 149.962 59.4333C149.954 59.4077 149.937 59.3906 149.92 59.3736C149.86 59.3053 149.758 59.1089 149.391 59.3736C149.254 59.4845 148.767 59.971 148.716 60.0564C148.682 60.1076 148.366 60.6624 148.341 60.7222C147.982 61.1063 147.675 61.627 147.461 61.9769C146.505 63.5816 145.729 64.8364 145.251 65.5704C144.448 66.774 143.723 67.7727 142.997 69.0189C142.733 69.4798 142.477 69.9066 142.852 70.2309C143.142 70.4955 143.825 70.6492 144.278 70.8114C144.593 70.9394 144.909 71.0333 145.217 71.1357C145.259 71.1016 145.302 71.076 145.345 71.0589C145.626 70.9906 146.07 71.0418 146.343 71.076L146.36 71.0589Z" fill="#CF3339"/>
<path d="M153.838 52.3146C154.512 51.1366 153.616 50.2319 153.018 49.2929C151.286 48.4564 149.348 48.4564 148.495 50.2233C148.307 51.2732 147.803 52.3487 148.81 53.1852C150.663 53.8169 152.336 53.7486 153.829 52.3146H153.838Z" fill="#00A0DF"/>
<path d="M157.704 73.6535C157.619 73.4145 157.491 73.2779 157.269 73.1158C157.158 73.0389 156.876 72.7999 156.851 72.7743C156.484 72.4756 156.142 72.1342 155.818 71.7757C155.596 71.5367 155.357 71.3659 155.161 71.1013C154.956 70.8453 154.794 70.5038 154.606 70.2222C154.299 69.7612 154.119 69.5478 153.855 69.0442C153.735 68.8223 153.479 68.3016 153.377 68.0712C153.172 67.6273 152.976 67.1237 152.796 66.6799C152.702 66.4409 152.702 66.1677 152.626 65.9372C152.481 65.5617 152.472 65.3654 152.327 64.8788C152.224 64.5459 152.088 63.7009 152.028 63.368C151.909 62.8644 151.875 61.6438 151.823 61.2426C151.738 60.5939 151.687 59.9623 151.695 59.3562L151.661 58.1698L151.516 57.2906L151.388 55.7542C151.055 54.9604 150.654 55.1567 150.372 55.7798C150.304 55.9249 150.244 56.1042 150.184 56.3005C150.15 56.4285 150.125 56.5651 150.099 56.7102C150.039 57.026 150.005 57.3077 149.971 57.5638C149.92 58.1527 149.971 59.416 149.971 59.4416C149.971 59.8428 149.945 60.2354 149.997 60.6622C150.091 61.5072 150.219 63.001 150.304 63.4022C150.423 63.9655 150.449 64.802 150.62 65.3483C150.739 65.7068 150.85 66.2787 151.004 66.7396C151.183 67.2432 151.55 68.0626 151.781 68.5406C151.968 68.9077 151.823 68.976 152.028 69.343C152.361 69.9405 152.566 70.2392 152.941 70.7941C153.129 71.0672 153.402 71.3659 153.599 71.6305C153.932 72.0659 154.188 72.2024 154.555 72.6121C154.777 72.928 154.393 72.8597 154.393 72.8597C154.23 72.8597 154.017 72.7743 153.838 72.7487C153.266 72.6719 152.899 72.706 152.301 72.5097C151.968 72.3988 151.729 72.339 151.388 72.2451C150.919 72.1085 150.415 71.8952 149.945 71.8013C149.758 71.7671 149.587 71.7415 149.408 71.7159C149.391 71.7074 149.374 71.6988 149.365 71.6818H149.348C149.169 71.5964 148.819 71.5452 148.605 71.5452C148.332 71.5452 148.059 71.4086 147.786 71.3745C147.24 71.2806 146.898 71.1269 146.369 71.0672C146.096 71.033 145.661 70.9818 145.37 71.0501C145.328 71.0672 145.285 71.0928 145.242 71.1269C145.072 71.2464 144.978 71.4854 145.183 71.6562C145.353 71.8013 145.609 71.8354 145.831 71.8952C146.164 71.972 146.454 72.0829 146.77 72.1939C147.069 72.2963 147.351 72.4073 147.649 72.467C147.854 72.5097 147.923 72.4926 148.102 72.5609C148.204 72.5951 148.315 72.6463 148.426 72.6804C148.443 72.6804 148.913 72.817 149.143 72.9024C149.305 72.9621 149.57 73.1328 149.741 73.1926C150.219 73.3462 150.714 73.5084 151.243 73.662C151.627 73.773 152.037 73.884 152.421 74.0035C152.463 74.012 153.01 74.1656 153.232 74.2169C153.479 74.2851 153.71 74.3449 153.974 74.4132C154.265 74.4815 154.538 74.5498 154.836 74.5583C155.4 74.5754 155.98 74.6351 156.552 74.6095C157.107 74.5839 158.003 74.3278 157.739 73.6535H157.704Z" fill="#6F7271"/>
<path d="M120.813 32.6644C121.095 32.5023 121.291 32.4084 121.538 32.1864C122.025 31.7341 122.563 31.2561 123.049 30.8122C123.382 30.522 123.613 30.2232 123.903 29.916C124.261 29.5404 124.68 29.1648 125.021 28.7636C125.405 28.3027 125.593 27.6284 125.712 27.0394C125.789 26.6468 125.9 25.9554 125.67 25.6054C125.49 25.3408 124.483 25.1104 124.389 25.5201C123.689 25.503 122.93 25.8444 122.358 26.22C121.999 26.459 121.752 26.7748 121.444 27.0907C121.308 27.2358 121.171 27.3809 121.06 27.543C120.966 27.6711 120.821 27.7735 120.745 27.9015C120.676 28.0125 120.676 28.1661 120.599 28.2942C120.531 28.3966 120.446 28.4649 120.395 28.5673C120.275 28.8149 120.224 28.9941 120.053 29.2246C119.789 29.6001 119.404 29.8306 119.097 30.155C118.935 30.3257 118.816 30.5305 118.705 30.7269C118.483 31.1024 118.227 31.4012 117.97 31.7511C117.868 31.8962 117.885 32.0157 117.842 32.1608C117.655 32.7157 117.364 33.0486 117.074 33.5436C117.057 33.629 116.869 33.9192 116.861 34.0302C116.861 34.1667 117.16 34.5679 117.211 34.6447L117.817 34.4484L118.858 34.0472L120.352 33.1339L120.54 33.0315C120.54 33.0315 120.497 32.9376 120.796 32.6815L120.813 32.6644Z" fill="#CB007B"/>
<path d="M114.872 32.5368C114.804 32.4515 114.719 32.4258 114.642 32.3661C114.48 32.221 114.454 32.1186 114.36 31.9052C114.181 31.4528 113.899 31.1796 113.558 30.8468C113.336 30.6248 113.199 30.3346 112.994 30.1127C112.662 29.7371 112.107 29.5749 111.688 29.2933C111.526 29.1908 111.467 29.0799 111.313 28.9518C110.989 28.6445 110.485 28.4482 110.109 28.2178C109.725 27.9873 109.367 27.6715 108.931 27.5691C108.624 27.4837 108.291 27.5264 107.975 27.4666C107.455 27.3642 106.943 27.1935 106.431 27.0996C105.799 26.9972 105.167 26.8691 104.536 26.8179C103.938 26.7667 103.306 26.5704 102.692 26.5874C102.402 26.5874 102.018 26.5448 101.77 26.724C101.531 26.8777 101.42 27.3642 101.386 27.6373C101.283 28.3714 101.318 29.3189 101.514 30.0017C101.574 30.181 101.616 30.2919 101.693 30.437C101.949 30.7955 102.137 31.2479 102.41 31.5723C102.692 31.8966 102.965 32.2295 103.195 32.6136C103.46 33.0148 103.887 33.4928 104.126 33.6635C104.399 33.8428 104.937 33.9793 105.201 34.1842C105.312 34.2696 105.329 34.2269 105.449 34.3208C105.679 34.5427 105.987 34.6793 106.268 34.7902C107.165 35.1487 108.061 35.5158 108.949 35.9255C109.836 36.3267 110.775 36.4632 111.714 36.2328C112.32 36.0877 112.918 35.9767 113.498 35.8231C113.959 35.7036 114.377 35.4133 114.787 35.1402C115.052 34.9609 115.342 34.6878 115.504 34.3634C115.547 34.2866 115.666 34.0562 115.666 33.9623L115.632 33.9367C115.35 33.5013 115.205 32.9209 114.855 32.5454L114.872 32.5368Z" fill="#A8AD00"/>
<path d="M126.233 25.2644C125.883 24.9229 125.73 24.8376 125.252 24.8376C124.927 24.8376 124.791 24.7352 124.492 24.7693C124.261 24.7949 123.673 24.9315 123.459 24.9827C122.947 25.1107 122.691 25.4265 122.23 25.6229C121.769 25.8107 121.428 26.1948 121.052 26.5106C120.608 26.8691 120.309 27.4154 119.917 27.8251C119.49 28.2604 119.319 28.7384 118.901 29.1225C118.517 29.481 118.141 29.9846 117.868 30.4626C117.689 30.7699 117.518 30.9918 117.305 31.282C117.185 31.4527 117.117 31.6661 116.972 31.8624C116.733 32.2124 116.605 32.5453 116.315 32.8526C116.229 32.955 115.828 32.1014 115.828 32.1014C115.683 31.8539 115.342 31.4357 115.197 31.2479C115.06 31.0601 114.949 30.8467 114.778 30.6845C114.095 30.1212 113.66 29.5322 112.883 29.0457C112.542 28.8408 112.388 28.6445 111.774 28.1836C111.799 28.1665 110.895 27.5007 110.562 27.3044C110.237 27.1081 109.802 27.0227 109.546 26.7837C109.384 26.6386 109.298 26.5277 109.068 26.4338C107.591 25.8107 106.439 25.1961 104.86 24.9656C104.373 24.8973 103.87 24.7181 103.358 24.7437C103.178 24.7608 102.555 24.7864 102.393 24.812C102.137 24.8547 101.616 25.0168 101.42 25.1449C100.857 25.4948 100.635 26.0326 100.464 26.7666C100.387 27.1081 100.438 27.5263 100.438 27.8763C100.438 28.1068 100.396 28.5506 100.438 28.8152C100.464 28.7981 100.49 29.4298 100.507 29.4127C100.507 29.6176 100.541 29.6944 100.601 29.8992C100.66 30.1041 100.754 30.2748 100.805 30.4967C100.874 30.7955 101.062 30.9235 101.172 31.2137C101.266 31.4613 101.352 31.4357 101.437 31.6747C101.633 32.2124 102.009 32.5453 102.325 32.9977C102.555 33.3135 102.863 33.5952 103.076 33.8086C103.221 33.9622 103.443 34.1842 103.622 34.3037C103.801 34.4402 103.998 34.5 104.177 34.6622C104.407 34.867 105.398 35.7206 105.713 35.9084C106.012 36.0791 107.352 36.4461 107.634 36.5229C108.146 36.6595 108.658 36.7705 109.196 36.8729C109.794 36.9753 110.263 36.9668 110.843 37.0351C111.168 37.0692 111.501 37.0351 111.834 37.0095C112.073 36.9924 112.294 36.9497 112.525 36.9241C112.883 36.8729 113.191 36.8302 113.532 36.6766C113.814 36.54 114.095 36.3949 114.386 36.2412C114.65 36.1047 114.949 35.934 115.162 35.7462C115.333 35.5925 115.436 35.3962 115.606 35.2511C115.786 35.0889 115.862 35.0548 115.973 34.8329C116.366 34.978 116.34 35.4645 116.426 35.6694C116.528 35.8913 116.562 35.9681 116.579 36.2156C116.588 36.412 116.656 36.5827 116.665 36.7705C116.699 37.1631 116.639 37.4362 116.571 37.8289C116.545 37.9398 116.434 38.1959 116.503 38.324C116.639 38.5886 116.904 38.2471 116.981 38.1447C117.237 37.7606 117.459 37.607 117.51 37.129C117.527 36.9839 117.663 36.7449 117.621 36.5741C117.629 36.429 117.604 36.1303 117.629 35.9596L117.587 35.6523C117.476 35.1743 117.561 35.3109 117.433 34.9268C117.399 34.7987 117.322 34.7134 117.228 34.6195C117.177 34.5512 116.878 34.15 116.878 34.0049C116.887 33.8939 117.083 33.6037 117.092 33.5184C117.382 33.0233 117.672 32.6904 117.86 32.1356C117.902 31.9819 117.894 31.8624 117.988 31.7259C118.235 31.3759 118.491 31.0772 118.722 30.7016C118.833 30.5053 118.952 30.3004 119.114 30.1297C119.422 29.8054 119.814 29.5834 120.07 29.1993C120.241 28.9603 120.292 28.7896 120.412 28.5421C120.463 28.4396 120.557 28.3714 120.617 28.2689C120.694 28.1494 120.694 27.9958 120.762 27.8763C120.839 27.7568 120.984 27.6458 121.078 27.5178C121.197 27.3556 121.334 27.202 121.462 27.0654C121.761 26.741 122.008 26.4338 122.375 26.1948C122.938 25.8277 123.707 25.4863 124.407 25.4948C124.5 25.0851 125.508 25.3156 125.687 25.5802C125.917 25.9302 125.815 26.6215 125.73 27.0142C125.602 27.6031 125.422 28.2775 125.038 28.7384C124.697 29.1481 124.279 29.5237 123.92 29.8907C123.63 30.1895 123.399 30.4967 123.066 30.787C122.58 31.2308 122.034 31.7088 121.556 32.1612C121.308 32.3831 121.112 32.477 120.83 32.6392C120.54 32.8953 120.54 32.9635 120.574 32.9892C120.591 32.9977 120.6 33.0062 120.6 33.0148C120.676 33.0148 121.009 32.8611 121.206 32.7331C121.385 32.6221 121.752 32.4258 121.914 32.2978C122.384 31.9478 122.845 31.5296 123.305 31.1796C123.527 31.0089 123.766 30.7699 123.971 30.5992C124.219 30.3772 124.535 30.2065 124.782 29.9846C125.192 29.609 125.542 29.2505 125.866 28.8067C126.037 28.5762 126.165 28.1238 126.378 27.6629C126.54 27.3044 126.558 26.8179 126.575 26.4167C126.592 25.9814 126.558 25.5546 126.25 25.2473L126.233 25.2644ZM115.521 34.3549C115.367 34.6792 115.069 34.9438 114.804 35.1316C114.394 35.4048 113.976 35.6864 113.515 35.8145C112.935 35.9681 112.329 36.0705 111.731 36.2242C110.792 36.4546 109.853 36.3181 108.966 35.9169C108.078 35.5072 107.182 35.1401 106.285 34.7816C106.004 34.6707 105.696 34.5341 105.466 34.3122C105.346 34.2183 105.329 34.261 105.218 34.1756C104.954 33.9793 104.407 33.8342 104.143 33.6549C103.904 33.4757 103.469 32.9977 103.212 32.6051C102.982 32.2209 102.709 31.8966 102.427 31.5637C102.154 31.2393 101.966 30.787 101.71 30.4285C101.633 30.2833 101.591 30.1724 101.531 29.9931C101.335 29.3103 101.292 28.3628 101.403 27.6288C101.437 27.3556 101.548 26.8691 101.787 26.7154C102.035 26.5362 102.419 26.5789 102.709 26.5789C103.332 26.5618 103.955 26.7581 104.553 26.8093C105.184 26.8605 105.816 26.9886 106.448 27.091C106.96 27.1849 107.472 27.3556 107.992 27.458C108.308 27.5178 108.641 27.4751 108.948 27.5605C109.375 27.6629 109.742 27.9873 110.126 28.2092C110.502 28.4396 111.006 28.636 111.33 28.9432C111.475 29.0713 111.543 29.1822 111.705 29.2847C112.115 29.5664 112.67 29.7285 113.011 30.1041C113.216 30.3346 113.361 30.6162 113.575 30.8382C113.908 31.1711 114.189 31.4442 114.377 31.8966C114.471 32.11 114.497 32.2124 114.659 32.3575C114.727 32.4258 114.821 32.4514 114.889 32.5282C115.248 32.9038 115.393 33.4842 115.666 33.9195L115.7 33.9452C115.7 34.039 115.581 34.2695 115.538 34.3463L115.521 34.3549Z" fill="#6F7271"/>
<path d="M34.9444 66.3125C35.1236 66.6112 35.5675 67.2173 36.0369 67.644C36.532 68.0537 36.8393 68.3013 37.5563 68.6342L37.616 68.6598C37.9916 68.7793 38.3842 68.6342 38.555 68.2757C38.6659 68.0025 38.555 67.5928 38.3501 67.4819C37.5819 67.0636 36.9929 66.7563 36.532 66.193C36.0881 65.6638 35.7467 64.8443 35.7467 64.0335V63.5298H37.5904C37.966 63.5298 38.2562 63.2396 38.2562 62.8811C38.2562 62.5226 37.966 62.2324 37.5904 62.2324H32.2642C31.8971 62.2324 31.6069 62.5226 31.6069 62.8811C31.6069 63.2396 31.8971 63.5298 32.2642 63.5298H34.0225V64.0591C34.0225 64.8187 33.6982 65.5443 33.3055 66.1162C32.7934 66.8246 32.1959 67.3965 31.4874 67.8148C31.1972 67.9769 31.1204 68.4037 31.2996 68.7025C31.5642 69.1292 31.991 69.1549 32.3581 68.9585L32.4263 68.9329C33.2031 68.4805 33.4506 68.2415 34.0311 67.6526C34.5688 67.0892 34.8334 66.5856 34.9444 66.321V66.3125Z" fill="#4D525A"/>
<path d="M29.6777 67.5078H19.6995C19.3666 67.5078 19.0679 67.8066 19.0679 68.1736C19.0679 68.4894 19.3666 68.7967 19.6995 68.7967H23.8222V69.6417C22.4309 69.9746 21.4749 71.0245 21.4749 72.3049C21.4749 73.8328 22.9431 75.1131 24.7526 75.1131C26.5622 75.1131 28.0303 73.8413 28.0303 72.3049C28.0303 71.016 26.9804 69.9319 25.5891 69.6247V68.7967H29.6777C30.0448 68.7967 30.3179 68.4894 30.3179 68.1736C30.3179 67.8151 30.0448 67.5078 29.6777 67.5078ZM26.3232 72.3049C26.3232 73.1414 25.5806 73.7901 24.7185 73.7901C23.8564 73.7901 23.1138 73.1243 23.1138 72.3049C23.1138 71.4854 23.8564 70.8111 24.7526 70.8111C25.6489 70.8111 26.3232 71.4598 26.3232 72.3049Z" fill="#4D525A"/>
<path d="M24.6842 67.0725C26.4681 67.0725 27.9533 65.7494 27.9533 64.1191C27.9533 62.4888 26.4681 61.1572 24.6842 61.1572C22.9002 61.1572 21.3809 62.4973 21.3809 64.1191C21.3809 65.7409 22.8917 67.0725 24.6842 67.0725ZM24.6842 62.5315C25.5889 62.5315 26.3486 63.2314 26.3486 64.1191C26.3486 65.0068 25.5804 65.7153 24.6842 65.7153C23.7879 65.7153 23.0112 64.9897 23.0112 64.1191C23.0112 63.2485 23.7623 62.5315 24.6842 62.5315Z" fill="#4D525A"/>
<path d="M56.2065 65.6814C55.8395 65.6814 55.5322 65.9972 55.5322 66.3813C55.5322 66.7654 55.8395 67.0812 56.2065 67.0812H61.5669C61.4987 67.508 61.4048 67.8921 61.345 68.3957C61.345 68.3957 61.3023 69.1127 62.0364 69.1639C62.7705 69.2322 62.9668 68.6774 62.9668 68.6774C62.9668 68.6774 63.5302 64.9644 63.4448 63.3682C63.4448 63.3682 63.4363 62.5146 62.4888 62.5146H56.2834C55.9078 62.5146 55.6091 62.8731 55.6091 63.2572C55.6091 63.5389 55.9078 63.8462 56.2834 63.8462H61.7206C61.7291 64.1023 61.7462 64.7937 61.695 65.6899H56.2151L56.2065 65.6814Z" fill="#4D525A"/>
<path d="M40.629 73.0734H35.96C35.5503 73.0734 35.5673 72.6978 35.5673 72.6978V70.8541C35.5673 70.4103 35.2003 70.0518 34.7564 70.0518C34.3126 70.0518 33.937 70.4103 33.937 70.8541V73.4404C33.937 74.0635 34.3211 74.4476 35.0381 74.4476H40.629C40.9875 74.4476 41.2777 74.166 41.2777 73.8075C41.2777 73.449 40.9875 73.0734 40.629 73.0734Z" fill="#4D525A"/>
<path d="M40.2535 70.7338C40.7144 70.7338 41.0644 70.4009 41.0644 69.9656V62.2323C41.0644 61.7884 40.7059 61.4385 40.2535 61.4385C39.8011 61.4385 39.4341 61.7884 39.4341 62.2323V69.9656C39.4341 70.4009 39.8097 70.7338 40.2535 70.7338Z" fill="#4D525A"/>
<path d="M74.0802 69.6934H68.3357C67.9687 69.6934 67.687 70.0433 67.687 70.4189C67.687 70.7945 67.9687 70.9908 68.3357 70.9908H73.1498C73.5681 70.9908 73.5425 71.3749 73.5425 71.3749V73.6368C73.5425 74.0978 73.9181 74.4477 74.3534 74.4477C74.7887 74.4477 75.1557 74.1063 75.1557 73.6368V70.7433C75.1557 70.1031 74.7716 69.6934 74.0717 69.6934H74.0802Z" fill="#4D525A"/>
<path d="M74.4816 61.4385C74.0462 61.4385 73.6792 61.7202 73.6792 62.1811V68.4548C73.6792 68.9243 74.0377 69.1974 74.4816 69.1974C74.9254 69.1974 75.2839 68.9243 75.2839 68.4548V62.1811C75.2839 61.7202 74.9169 61.4385 74.4816 61.4385Z" fill="#4D525A"/>
<path d="M71.9381 67.5254V62.7283C71.9381 62.2759 71.5711 61.8918 71.1272 61.8918C70.6833 61.8918 70.3248 62.2674 70.3248 62.7283V64.0428H67.7727V62.6942C67.7727 62.2418 67.4142 61.8662 66.9789 61.8662C66.5435 61.8662 66.168 62.2418 66.168 62.6942V67.5083C66.1936 67.79 66.3387 68.3448 67.0557 68.4045H71.0418C71.7588 68.3363 71.9125 67.807 71.9381 67.5168V67.5254ZM70.3248 66.8084C70.3078 66.9364 70.231 67.0986 69.9322 67.0986H68.1824C67.8324 67.0986 67.7898 66.8767 67.7727 66.7657V65.2805H70.3248V66.7998V66.8084Z" fill="#4D525A"/>
<path d="M46.792 68.5578C47.3553 68.003 47.7138 67.1921 48.0211 66.569C48.4393 67.2177 48.9686 68.0457 49.5063 68.4895C49.6087 68.6176 50.1123 68.7883 50.4452 68.2761C50.744 67.764 50.3428 67.397 50.283 67.3543C49.6173 66.8165 49.2332 66.1337 49.0283 65.3655C48.7808 64.6399 48.7552 64.3753 48.7552 63.445V62.8219C48.7552 62.3609 48.3881 61.9854 47.9613 61.9854C47.5346 61.9854 47.2187 62.3524 47.2187 62.8133V63.4364C47.2187 64.1534 47.1846 64.2473 47.0992 64.896C47.0054 65.485 46.8176 66.0995 46.4932 66.5605C46.1774 66.0995 45.9981 65.5191 45.9128 64.9472C45.8104 64.29 45.8104 64.1876 45.8104 63.445V62.8219C45.8104 62.3609 45.4689 61.9939 45.0421 61.9939C44.6154 61.9939 44.3593 62.3609 44.3508 62.8219V63.445C44.3508 64.3924 44.291 64.6229 44.0861 65.3143C43.8728 66.1337 43.3435 66.9019 42.6522 67.4823C42.6009 67.5335 42.2595 67.9774 42.6095 68.4554C43.0107 68.9846 43.6594 68.7115 43.7533 68.6261C44.2227 68.0713 44.6666 67.1836 45.0165 66.6202C45.3494 67.1665 45.7165 68.003 46.2457 68.5834C46.4335 68.72 46.6127 68.72 46.7834 68.5834L46.792 68.5578Z" fill="#4D525A"/>
<path d="M49.2414 69.0781C47.4745 69.0781 46.0405 70.4353 46.0405 72.04C46.0405 73.6447 47.4745 74.9336 49.2414 74.9336C51.0083 74.9336 52.4252 73.6532 52.4252 72.04C52.4252 70.4268 51.0254 69.0781 49.2414 69.0781ZM49.2073 73.585C48.3537 73.585 47.6794 72.8509 47.6794 72.0315C47.6794 71.1182 48.3964 70.478 49.2414 70.478C50.0864 70.478 50.7693 71.1182 50.7693 72.0315C50.7693 72.8424 50.0182 73.585 49.1987 73.585H49.2073Z" fill="#4D525A"/>
<path d="M64.5543 69.582H54.5078C54.1151 69.582 53.7993 69.8979 53.7993 70.2905C53.7993 70.6831 54.1151 70.9221 54.5078 70.9221H64.5543C64.9298 70.9221 65.2286 70.6746 65.2286 70.2905C65.2286 69.9064 64.9298 69.582 64.5543 69.582Z" fill="#4D525A"/>
<path d="M51.7938 61.4385C51.3585 61.4385 51 61.7202 51 62.1811V68.6938C51 69.0608 51.3585 69.3937 51.7938 69.3937C52.2462 69.3937 52.6218 69.0608 52.6218 68.6938V62.1811C52.6218 61.7202 52.2547 61.4385 51.7938 61.4385Z" fill="#4D525A"/>
</svg>
